<svg xmlns="http://www.w3.org/2000/svg" xmlns:xlink="http://www.w3.org/1999/xlink" viewBox="0 0 60 60">
  <defs>
    <style>
      .cls-1 {
        fill: none;
      }

      .cls-2 {
        clip-path: url(#clip-path);
      }

      .cls-3 {
        fill: #f35b74;
      }

      .cls-4 {
        clip-path: url(#clip-path-2);
      }

      .cls-5 {
        fill: url(#linear-gradient);
      }

      .cls-6 {
        fill: #e2d1c6;
      }

      .cls-7 {
        fill: #fff1c1;
      }

      .cls-8 {
        fill: #fff;
      }

      .cls-9 {
        fill: #44465a;
      }
    </style>
    <clipPath id="clip-path">
      <path id="Path_6857" data-name="Path 6857" class="cls-1" d="M0-280H60v60H0Z" transform="translate(0 280)"/>
    </clipPath>
    <clipPath id="clip-path-2">
      <path id="Path_6859" data-name="Path 6859" class="cls-1" d="M98.793-241.944a.6.6,0,0,0-.175.425h0a.6.6,0,0,0,.177.424h0c.1.1.186.2.272.3h0c.027.032.054.065.08.1h0c.062.077.12.156.177.237h0c.041.059.081.118.119.179h0c.042.066.083.133.122.2h0c.038.068.075.137.109.207h0c.015.03.029.061.044.092h0a4.655,4.655,0,0,1,.292.8h0l.114.628-2.03-2.03h0c-.015-.016-.028-.033-.044-.048h0a.383.383,0,0,0-.273-.113h0a.385.385,0,0,0-.274.114h0a.383.383,0,0,0-.112.274h0a.383.383,0,0,0,.114.273h0a2.814,2.814,0,0,1,.835,2h0a2.814,2.814,0,0,1-.356,1.38h-.035l-2.012-2.012a1.73,1.73,0,0,0-1.267-.552h-.291a1.725,1.725,0,0,0-.858.228h0l-3.081-3.081c-.008-.009-.015-.02-.024-.029h0c-.007-.007-.015-.011-.022-.017h0l-.019-.019,0,0a.6.6,0,0,0-.219-.119h0a.607.607,0,0,0-.161-.022h0a.6.6,0,0,0-.426.177h0a5.817,5.817,0,0,0-1.706,4.144h0a5.814,5.814,0,0,0,1.682,4.09h0l3.1,3.1v8.054l-2.124-2.124c-.07-.075-.143-.147-.217-.217h0l-.011-.011h0a4.753,4.753,0,0,0-.59-.476h0a1.18,1.18,0,0,0-1.215-.065h0a1.18,1.18,0,0,0-.626,1.043h0v6.847a4.777,4.777,0,0,0,1.4,3.378h0l2.93,2.93a4.776,4.776,0,0,1,1.4,3.378h0V-207H91.3a.481.481,0,0,0-.482.481h0v2.113h-.76a.481.481,0,0,0-.481.481h0v5.57h0l8.084,8.085c.454.02.911.032,1.37.032h0a30.012,30.012,0,0,0,29.2-23.111h0l-4.107-4.107c-.03-.031-.059-.063-.09-.094h0c-.007-.007-.015-.012-.023-.018h0L99.733-241.852c-.03-.031-.059-.063-.09-.094h0c-.007-.007-.015-.012-.022-.018h0l-.009-.009h0a.606.606,0,0,0-.087-.063h0a.562.562,0,0,0-.093-.045h0l-.024-.007h0a.6.6,0,0,0-.078-.022h0a.59.59,0,0,0-.11-.011h0a.6.6,0,0,0-.426.177" transform="translate(-87.859 242.121)"/>
    </clipPath>
    <linearGradient id="linear-gradient" x1="0.24" y1="0.538" x2="0.854" y2="0.538" gradientUnits="objectBoundingBox">
      <stop offset="0" stop-color="#b3236e"/>
      <stop offset="0.1" stop-color="#ba286e"/>
      <stop offset="0.2" stop-color="#c02e6f"/>
      <stop offset="0.3" stop-color="#c6336f"/>
      <stop offset="0.4" stop-color="#cd3970"/>
      <stop offset="0.5" stop-color="#d33f71"/>
      <stop offset="0.6" stop-color="#d94471"/>
      <stop offset="0.7" stop-color="#e04a72"/>
      <stop offset="0.8" stop-color="#e64f72"/>
      <stop offset="0.9" stop-color="#ec5573"/>
      <stop offset="1" stop-color="#f25b74"/>
    </linearGradient>
  </defs>
  <g id="Action" transform="translate(-630 -392)">
    <g id="Group_9119" data-name="Group 9119" class="cls-2" transform="translate(630 392)">
      <g id="Group_9118" data-name="Group 9118">
        <path id="Path_6856" data-name="Path 6856" class="cls-3" d="M-220-110a30,30,0,0,1-30,30,30,30,0,0,1-30-30,30,30,0,0,1,30-30,30,30,0,0,1,30,30" transform="translate(280 140)"/>
      </g>
    </g>
    <g id="Group_9121" data-name="Group 9121" class="cls-4" transform="translate(648.827 400.117)">
      <g id="Group_9120" data-name="Group 9120" transform="translate(11.173 -38.117) rotate(45)">
        <path id="Path_6858" data-name="Path 6858" class="cls-5" d="M0,42.426,42.426,0,84.853,42.426,42.426,84.853Z" transform="translate(0 0)"/>
      </g>
    </g>
    <g id="Group_9130" data-name="Group 9130" class="cls-2" transform="translate(630 392)">
      <g id="Group_9122" data-name="Group 9122" transform="translate(27.599 22.832)">
        <path id="Path_6860" data-name="Path 6860" class="cls-6" d="M-39.659,0h-.013a20.543,20.543,0,0,1,.164,2.59A20.3,20.3,0,0,1-50.475,20.62h9.684v-1.3a4.777,4.777,0,0,1,.387-1.884l.833-1.94A19.392,19.392,0,0,0-38,7.844V1.66A1.66,1.66,0,0,0-39.659,0" transform="translate(50.475)"/>
      </g>
      <g id="Group_9123" data-name="Group 9123" transform="translate(18.827 11.174)">
        <path id="Path_6861" data-name="Path 6861" class="cls-7" d="M-72.375-52.242a20.5,20.5,0,0,0-.164-2.59h-.752a.958.958,0,0,0-.958.958v2.168a.661.661,0,0,1-.661.661v-3.769a1.6,1.6,0,0,0-1.6-1.6h-1.016a.958.958,0,0,0-.958.958v3.181a.661.661,0,0,1-.661.661v-5.242a1.534,1.534,0,0,0-1.534-1.534H-81.95a.958.958,0,0,0-.958.958v4.589a.661.661,0,0,1-.661.661V-64.755A1.736,1.736,0,0,0-85.3-66.49H-85.6a1.735,1.735,0,0,0-1.736,1.735V-47.6a.831.831,0,0,1-.831.831v-2.694a4.821,4.821,0,0,0-2.111-3.34,1.179,1.179,0,0,0-1.215-.065,1.18,1.18,0,0,0-.626,1.043v6.847a4.776,4.776,0,0,0,1.4,3.378l2.93,2.93a4.776,4.776,0,0,1,1.4,3.378v1.083h3.045A20.3,20.3,0,0,0-72.375-52.242" transform="translate(92.114 66.49)"/>
      </g>
      <g id="Group_9124" data-name="Group 9124" transform="translate(21.783 43.237)">
        <path id="Path_6862" data-name="Path 6862" class="cls-8" d="M-66.545-9.513H-84.694v-2.113a.481.481,0,0,1,.481-.481h17.186a.481.481,0,0,1,.481.481Z" transform="translate(84.694 12.107)"/>
      </g>
      <g id="Group_9125" data-name="Group 9125" transform="translate(20.541 45.831)">
        <path id="Path_6863" data-name="Path 6863" class="cls-9" d="M-75.652-22.189H-96.284v-5.57a.481.481,0,0,1,.481-.481h19.67a.481.481,0,0,1,.481.481Z" transform="translate(96.284 28.241)"/>
      </g>
      <g id="Group_9126" data-name="Group 9126" transform="translate(28.358 9.696)">
        <path id="Path_6864" data-name="Path 6864" class="cls-8" d="M-1.455-19.532a.379.379,0,0,1-.1-.014.388.388,0,0,1-.17-.1.385.385,0,0,1-.114-.273.384.384,0,0,1,.113-.274A2.817,2.817,0,0,0-.9-22.2a2.814,2.814,0,0,0-.836-2,.383.383,0,0,1-.114-.273.383.383,0,0,1,.112-.274.385.385,0,0,1,.274-.114.384.384,0,0,1,.273.112A3.585,3.585,0,0,1-.13-22.2a3.583,3.583,0,0,1-1.051,2.553.384.384,0,0,1-.274.114" transform="translate(1.852 24.859)"/>
      </g>
      <g id="Group_9127" data-name="Group 9127" transform="translate(29.586 8.117)">
        <path id="Path_6865" data-name="Path 6865" class="cls-8" d="M-2.268-31.649a.6.6,0,0,1-.161-.022.6.6,0,0,1-.263-.153.6.6,0,0,1,0-.85,4.623,4.623,0,0,0,1.356-3.293,4.623,4.623,0,0,0-1.372-3.287.6.6,0,0,1-.177-.424.6.6,0,0,1,.175-.425.6.6,0,0,1,.426-.177.6.6,0,0,1,.424.175A5.817,5.817,0,0,1-.136-35.969a5.817,5.817,0,0,1-1.706,4.144.6.6,0,0,1-.426.177" transform="translate(2.886 40.28)"/>
      </g>
      <g id="Group_9128" data-name="Group 9128" transform="translate(21.083 9.843)">
        <path id="Path_6866" data-name="Path 6866" class="cls-8" d="M-4.9-19.532a.384.384,0,0,1-.273-.112,3.583,3.583,0,0,1-1.063-2.548,3.582,3.582,0,0,1,1.051-2.553.384.384,0,0,1,.274-.114.388.388,0,0,1,.1.014.386.386,0,0,1,.17.1.384.384,0,0,1,.114.273.385.385,0,0,1-.113.274,2.816,2.816,0,0,0-.826,2.006,2.814,2.814,0,0,0,.835,2,.385.385,0,0,1,.114.273.384.384,0,0,1-.113.274.385.385,0,0,1-.274.114" transform="translate(6.233 24.859)"/>
      </g>
      <g id="Group_9129" data-name="Group 9129" transform="translate(18.827 8.117)">
        <path id="Path_6867" data-name="Path 6867" class="cls-8" d="M-7.817,0a.6.6,0,0,1,.161.022.6.6,0,0,1,.263.153.6.6,0,0,1,0,.85A4.623,4.623,0,0,0-8.748,4.318,4.623,4.623,0,0,0-7.376,7.6a.6.6,0,0,1,.177.424.6.6,0,0,1-.175.425.6.6,0,0,1-.426.177.6.6,0,0,1-.424-.175A5.817,5.817,0,0,1-9.949,4.321,5.816,5.816,0,0,1-8.243.177.6.6,0,0,1-7.817,0" transform="translate(9.949)"/>
      </g>
    </g>
  </g>
</svg>
