<svg xmlns="http://www.w3.org/2000/svg" xmlns:xlink="http://www.w3.org/1999/xlink" viewBox="0 0 63.5 63.5">
  <defs>
    <style>
      .cls-1 {
        fill: none;
      }

      .cls-2 {
        clip-path: url(#clip-path);
      }

      .cls-3 {
        fill: #79bc8f;
      }

      .cls-4 {
        fill: #f35b74;
      }

      .cls-5 {
        fill: #fff;
      }

      .cls-6 {
        fill: #ffec33;
      }

      .cls-7 {
        fill: #eff3f3;
      }

      .cls-8 {
        fill: #ffc907;
      }

      .cls-9 {
        fill: #b4226d;
      }
    </style>
    <clipPath id="clip-path">
      <path id="Path_7292" data-name="Path 7292" class="cls-1" d="M0-63.5H63.5V0H0Z"/>
    </clipPath>
  </defs>
  <g id="circular_classifications_" data-name="circular classifications " transform="translate(-305 -1205.5)">
    <g id="Group_9639" data-name="Group 9639" class="cls-2" transform="translate(305 1269)">
      <g id="Group_9631" data-name="Group 9631" transform="translate(63.5 -31.75)">
        <path id="Path_7284" data-name="Path 7284" class="cls-3" d="M0,0A31.75,31.75,0,0,1-31.75,31.75,31.75,31.75,0,0,1-63.5,0,31.75,31.75,0,0,1-31.75-31.75,31.75,31.75,0,0,1,0,0"/>
      </g>
      <g id="Group_9632" data-name="Group 9632" transform="translate(45.131 -42.389)">
        <path id="Path_7285" data-name="Path 7285" class="cls-4" d="M0,0,2.847-2.037a.452.452,0,0,0,.186-.31.45.45,0,0,0-.1-.347A21.03,21.03,0,0,0-12.053-10.4a.459.459,0,0,0-.34.122.458.458,0,0,0-.144.332v3.506A17.065,17.065,0,0,1,0,0"/>
      </g>
      <g id="Group_9633" data-name="Group 9633" transform="translate(49.623 -42.909)">
        <path id="Path_7286" data-name="Path 7286" class="cls-5" d="M0,0A.459.459,0,0,0-.3-.2.457.457,0,0,0-.65-.129L-3.5,1.907A17.016,17.016,0,0,1-.774,11.159a17.1,17.1,0,0,1-17.1,17.1A17.1,17.1,0,0,1-34.951,12h-3.506a.454.454,0,0,0-.332.144.452.452,0,0,0-.122.34A21.073,21.073,0,0,0-17.882,32.222,21.073,21.073,0,0,0,3.19,11.15,20.969,20.969,0,0,0,0,0"/>
      </g>
      <g id="Group_9634" data-name="Group 9634" transform="translate(30.887 -48.827)">
        <path id="Path_7287" data-name="Path 7287" class="cls-6" d="M0,0V-3.507a.454.454,0,0,0-.144-.332.452.452,0,0,0-.339-.122A21.072,21.072,0,0,0-20.175,15.731a.452.452,0,0,0,.123.339.45.45,0,0,0,.331.144h3.507A17.1,17.1,0,0,1,0,0"/>
      </g>
      <g id="Group_9635" data-name="Group 9635" transform="translate(31.75 -14.651)">
        <path id="Path_7288" data-name="Path 7288" class="cls-7" d="M0,0A17.1,17.1,0,0,0,17.1-17.1a17.016,17.016,0,0,0-2.722-9.252L7.351-21.324a.453.453,0,0,0-.142.574,8.041,8.041,0,0,1,.867,3.642A8.085,8.085,0,0,1-.009-9.023,8.088,8.088,0,0,1-8-15.869a.453.453,0,0,0-.448-.385h-8.63A17.1,17.1,0,0,0,0,0"/>
      </g>
      <g id="Group_9636" data-name="Group 9636" transform="translate(30.502 -39.75)">
        <path id="Path_7289" data-name="Path 7289" class="cls-8" d="M0,0A.455.455,0,0,0,.385-.449V-9.077A17.1,17.1,0,0,0-15.829,7.137H-7.2a.454.454,0,0,0,.449-.386A8.09,8.09,0,0,1,0,0"/>
      </g>
      <g id="Group_9637" data-name="Group 9637" transform="translate(37.518 -37.415)">
        <path id="Path_7290" data-name="Path 7290" class="cls-9" d="M0,0A.454.454,0,0,0,.589.051L7.614-4.974A17.063,17.063,0,0,0-4.923-11.413v8.629a.455.455,0,0,0,.385.449A8.059,8.059,0,0,1,0,0"/>
      </g>
      <g id="Group_9638" data-name="Group 9638" transform="translate(35.059 -29.551)">
        <path id="Path_7291" data-name="Path 7291" class="cls-5" d="M0,0V-.09C0-.757-.244-1.181-.629-1.181S-1.258-.77-1.258-.09v.077c0,.681.257,1.091.642,1.091S0,.668,0,0M-2.683,0V-.09a2.146,2.146,0,0,1,2.067-2.4A2.14,2.14,0,0,1,1.438-.1V0A2.16,2.16,0,0,1-.629,2.4,2.151,2.151,0,0,1-2.683,0M-6.6-4.417v.09c0,.668.257,1.092.63,1.092s.616-.411.616-1.092V-4.4c0-.68-.244-1.091-.629-1.091S-6.6-5.084-6.6-4.417m5.431-2.052A.52.52,0,0,1-.735-6.7H-.49a.521.521,0,0,1,.461.278.521.521,0,0,1-.032.538L-2.8-1.9-5.43,2.053a.523.523,0,0,1-.435.232h-.242a.521.521,0,0,1-.462-.279.521.521,0,0,1,.033-.538l2.722-3.946ZM-8.038-4.314v-.1a2.154,2.154,0,0,1,2.068-2.4,2.144,2.144,0,0,1,2.054,2.4v.09a2.153,2.153,0,0,1-2.067,2.4A2.147,2.147,0,0,1-8.038-4.314"/>
      </g>
    </g>
  </g>
</svg>
