<svg height="512pt" viewBox="0 0 512 512" width="512pt" xmlns="http://www.w3.org/2000/svg"><path d="m512 256c0 141.386719-114.613281 256-256 256s-256-114.613281-256-256 114.613281-256 256-256 256 114.613281 256 256zm0 0" fill="#ffe000"/><path d="m512 256c0-15.210938-1.335938-30.105469-3.878906-44.589844l-120.605469-120.605468-286.222656 330.390624 79.601562 79.597657c23.75 7.28125 48.96875 11.207031 75.105469 11.207031 141.386719 0 256-114.613281 256-256zm0 0" fill="#ffc200"/><path d="m220.945312 90.804688-64.742187 64.742187v220.339844h231.3125v-285.082031zm0 0" fill="#abddff"/><path d="m284.882812 90.804688h102.632813v285.082031h-102.632813zm0 0" fill="#78beff"/><path d="m220.945312 155.546875v-64.742187l-64.742187 64.742187zm0 0" fill="#78b0f0"/><path d="m166.035156 136.113281-64.742187 64.742188v220.339843h231.3125v-285.082031zm0 0" fill="#fff"/><path d="m220.59375 136.113281h112.011719v285.082031h-112.011719zm0 0" fill="#dbeeff"/><path d="m166.035156 200.855469v-64.742188l-64.742187 64.742188zm0 0" fill="#abddff"/><path d="m405.636719 257.921875h-30v-34.015625c0-14.6875-11.949219-26.640625-26.640625-26.640625s-26.644532 11.953125-26.644532 26.640625v34.015625h-30v-34.015625c0-31.230469 25.410157-56.640625 56.644532-56.640625 31.230468 0 56.640625 25.410156 56.640625 56.640625zm0 0" fill="#4a7aff"/><path d="m348.996094 167.265625c-.144532 0-.28125.007813-.425782.011719v30c.144532-.003906.28125-.011719.425782-.011719 14.6875 0 26.640625 11.953125 26.640625 26.640625v34.015625h30v-34.015625c0-31.230469-25.410157-56.640625-56.640625-56.640625zm0 0" fill="#2864f0"/><path d="m282.25 247.300781h133.492188v94.433594h-133.492188zm0 0" fill="#2d5396"/><path d="m348.570312 247.300781h67.171876v94.433594h-67.171876zm0 0" fill="#1b3b6b"/><path d="m337.398438 277.636719h23.191406v41.734375h-23.191406zm0 0" fill="#4a98f7"/><path d="m348.570312 277.636719h12.019532v41.734375h-12.019532zm0 0" fill="#4a7aff"/></svg>