<svg xmlns="http://www.w3.org/2000/svg" xmlns:xlink="http://www.w3.org/1999/xlink" viewBox="0 0 62 62">
  <defs>
    <style>
      .cls-1 {
        fill: none;
      }

      .cls-2 {
        fill: #ebebeb;
      }

      .cls-3 {
        clip-path: url(#clip-path);
      }

      .cls-4 {
        fill: #86a431;
      }

      .cls-5 {
        fill: #f19429;
      }

      .cls-6 {
        fill: #ec282c;
      }

      .cls-7 {
        fill: #00a3e1;
      }

      .cls-8 {
        fill: #333;
      }
    </style>
    <clipPath id="clip-path">
      <path id="Path_7004" data-name="Path 7004" class="cls-1" d="M0-247.4H35.719v35.966H0Z" transform="translate(0 247.399)"/>
    </clipPath>
  </defs>
  <g id="Internal_organizations" data-name="Internal organizations" transform="translate(-639 -730)">
    <path id="Path_7005" data-name="Path 7005" class="cls-2" d="M31,0A31,31,0,1,1,0,31,31,31,0,0,1,31,0Z" transform="translate(639 730)"/>
    <g id="Group_9273" data-name="Group 9273" transform="translate(571.044 553.673) rotate(150)">
      <g id="Group_9272" data-name="Group 9272" class="cls-3" transform="translate(11.384 -253.919) rotate(30)">
        <g id="Group_9264" data-name="Group 9264" transform="translate(1.831 1.964)">
          <path id="Path_6996" data-name="Path 6996" class="cls-4" d="M-75.266-29.738c-.268-.48-.535-.956-.8-1.419a13.21,13.21,0,0,1,2.929-.606l-.276-3.034a16.164,16.164,0,0,0-6.345,1.952,5.371,5.371,0,0,1,.144,1.232,5.357,5.357,0,0,1-5.357,5.357,5.36,5.36,0,0,1-1.194-.136,16.167,16.167,0,0,0-1.906,6.357l3.036.255a13.155,13.155,0,0,1,.649-3.124c.462.284.929.569,1.4.853a11.446,11.446,0,0,1,7.721-7.686" transform="translate(88.069 34.797)"/>
        </g>
        <g id="Group_9265" data-name="Group 9265" transform="translate(1.716 18.954)">
          <path id="Path_6997" data-name="Path 6997" class="cls-5" d="M-74.658-58.348a11.447,11.447,0,0,1-7.565-7.838c-.506.282-1.007.564-1.5.841a13.227,13.227,0,0,1-.606-2.929L-87.358-68a16.165,16.165,0,0,0,1.951,6.344,5.387,5.387,0,0,1,1.232-.144,5.357,5.357,0,0,1,5.356,5.357,5.353,5.353,0,0,1-.135,1.194A16.163,16.163,0,0,0-72.6-53.34l.255-3.036a13.183,13.183,0,0,1-3.124-.648c.269-.437.539-.88.808-1.324" transform="translate(87.358 68.274)"/>
        </g>
        <g id="Group_9266" data-name="Group 9266" transform="translate(18.985 19.234)">
          <path id="Path_6998" data-name="Path 6998" class="cls-6" d="M-69.946,0a13.17,13.17,0,0,1-.648,3.124c-.491-.3-.989-.605-1.488-.907a11.447,11.447,0,0,1-7.755,7.519c.309.555.618,1.106.922,1.64a13.186,13.186,0,0,1-2.93.606l.277,3.034a16.162,16.162,0,0,0,6.344-1.951,5.36,5.36,0,0,1-.144-1.232A5.356,5.356,0,0,1-70.01,6.476a5.384,5.384,0,0,1,1.195.135A16.172,16.172,0,0,0-66.91.255Z" transform="translate(81.844)"/>
        </g>
        <g id="Group_9267" data-name="Group 9267" transform="translate(25.919 0)">
          <path id="Path_6999" data-name="Path 6999" class="cls-7" d="M-28.8-57.607a4.9,4.9,0,0,0,4.9-4.9,4.9,4.9,0,0,0-4.9-4.9,4.9,4.9,0,0,0-4.9,4.9,4.9,4.9,0,0,0,4.9,4.9" transform="translate(33.703 67.407)"/>
        </g>
        <g id="Group_9268" data-name="Group 9268" transform="translate(0.032 0.248)">
          <path id="Path_7000" data-name="Path 7000" class="cls-4" d="M-28.8-57.607a4.9,4.9,0,0,0,4.9-4.9,4.9,4.9,0,0,0-4.9-4.9,4.9,4.9,0,0,0-4.9,4.9,4.9,4.9,0,0,0,4.9,4.9" transform="translate(33.7 67.407)"/>
        </g>
        <g id="Group_9269" data-name="Group 9269" transform="translate(0 25.888)">
          <path id="Path_7001" data-name="Path 7001" class="cls-5" d="M-28.8,0a4.9,4.9,0,0,0-4.9,4.9,4.9,4.9,0,0,0,4.9,4.9,4.9,4.9,0,0,0,4.9-4.9A4.9,4.9,0,0,0-28.8,0" transform="translate(33.702)"/>
        </g>
        <g id="Group_9270" data-name="Group 9270" transform="translate(25.919 26.167)">
          <path id="Path_7002" data-name="Path 7002" class="cls-6" d="M-28.8,0a4.9,4.9,0,0,0-4.9,4.9,4.9,4.9,0,0,0,4.9,4.9,4.9,4.9,0,0,0,4.9-4.9A4.9,4.9,0,0,0-28.8,0" transform="translate(33.703)"/>
        </g>
        <g id="Group_9271" data-name="Group 9271" transform="translate(18.986 1.799)">
          <path id="Path_7003" data-name="Path 7003" class="cls-7" d="M-76.8-48.869a5.35,5.35,0,0,1-1.232.144,5.356,5.356,0,0,1-5.356-5.356,5.364,5.364,0,0,1,.135-1.195,16.153,16.153,0,0,0-6.356-1.906l-.255,3.036a13.2,13.2,0,0,1,3.124.649c-.317.515-.635,1.037-.951,1.56a11.447,11.447,0,0,1,7.64,7.639c.529-.295,1.054-.589,1.563-.879a13.216,13.216,0,0,1,.606,2.93l3.033-.277A16.153,16.153,0,0,0-76.8-48.869" transform="translate(89.864 57.182)"/>
        </g>
      </g>
      <g id="Group_9274" data-name="Group 9274" transform="translate(17.838 -220.019) rotate(-150)">
        <path id="Path_6873" data-name="Path 6873" class="cls-8" d="M-59.342,0l-5.119,7.163h2v8.349h6.237V7.163h2Z" transform="translate(64.461)"/>
      </g>
    </g>
  </g>
</svg>
